<svg xmlns="http://www.w3.org/2000/svg" xmlns:xlink="http://www.w3.org/1999/xlink" width="1640" zoomAndPan="magnify" viewBox="0 0 1230 693.000001" height="924" preserveAspectRatio="xMidYMid meet" version="1.0"><defs><g/><clipPath id="cbad17c173"><path d="M 1004 134 L 1229.113281 134 L 1229.113281 159 L 1004 159 Z M 1004 134 " clip-rule="nonzero"/></clipPath></defs><g fill="#000000" fill-opacity="1"><g transform="translate(112.537466, 289.743799)"><g><path d="M 49.277344 -42.632812 C 49.277344 -47.132812 45.742188 -50.777344 41.242188 -50.777344 C 36.742188 -50.777344 33.207031 -47.132812 33.207031 -42.632812 C 33.207031 -38.242188 36.742188 -34.601562 41.242188 -34.601562 C 45.742188 -34.601562 49.277344 -38.242188 49.277344 -42.632812 Z M 82.484375 -42.957031 C 82.484375 -64.273438 68.664062 -85.699219 41.347656 -85.699219 C 13.605469 -85.699219 0 -64.273438 0 -42.957031 C 0 -21.53125 13.605469 0 41.347656 0 C 68.664062 0 82.484375 -21.53125 82.484375 -42.957031 Z M 66.414062 -42.632812 C 66.414062 -28.816406 57.953125 -14.996094 41.347656 -14.996094 C 24.53125 -14.996094 16.175781 -28.816406 16.175781 -42.632812 C 16.175781 -56.667969 24.53125 -70.59375 41.347656 -70.59375 C 57.953125 -70.59375 66.414062 -56.667969 66.414062 -42.632812 Z M 66.414062 -42.632812 "/></g></g></g><g fill="#000000" fill-opacity="1"><g transform="translate(210.87207, 289.743799)"><g><path d="M 70.914062 -85.699219 L 57.097656 -85.699219 C 56.347656 -85.699219 55.808594 -85.160156 55.808594 -84.734375 L 55.808594 -28.921875 L 16.28125 -85.375 C 16.175781 -85.589844 15.53125 -85.699219 15.320312 -85.699219 L 1.070312 -85.699219 C 0.535156 -85.699219 0 -85.160156 0 -84.734375 L 0 -20.566406 L 16.390625 -20.566406 L 16.390625 -56.773438 L 55.808594 -0.320312 C 55.917969 -0.105469 56.558594 0 56.773438 0 L 70.914062 0 C 71.664062 0 72.09375 -0.535156 72.09375 -0.964844 L 72.09375 -84.734375 C 72.09375 -85.160156 71.664062 -85.699219 70.914062 -85.699219 Z M 70.914062 -85.699219 "/></g></g></g><g fill="#000000" fill-opacity="1"><g transform="translate(298.387876, 289.743799)"><g><path d="M 40.707031 -15.960938 L 16.390625 -15.960938 L 16.390625 -35.242188 L 50.027344 -35.242188 C 50.667969 -35.242188 51.203125 -35.777344 51.203125 -36.207031 L 51.203125 -49.8125 C 51.203125 -50.347656 50.667969 -50.777344 50.027344 -50.777344 L 16.390625 -50.777344 L 16.390625 -70.164062 L 40.707031 -70.164062 L 40.707031 -85.699219 L 1.179688 -85.699219 C 0.535156 -85.699219 0 -85.160156 0 -84.734375 L 0 -0.964844 C 0 -0.535156 0.535156 0 1.179688 0 L 40.707031 0 Z M 40.707031 -15.960938 "/></g></g></g><g fill="#000000" fill-opacity="1"><g transform="translate(363.944767, 289.743799)"><g><path d="M 67.273438 -1.285156 L 34.707031 -85.054688 C 34.386719 -85.910156 32.886719 -85.910156 32.566406 -85.054688 L 0.105469 -1.285156 C -0.214844 -0.644531 0.214844 0 1.179688 0 L 15.855469 0 C 16.28125 0 16.816406 -0.214844 16.925781 -0.644531 L 33.636719 -48.417969 L 50.5625 -0.644531 C 50.667969 -0.214844 51.203125 0 51.527344 0 L 66.308594 0 C 67.058594 0 67.59375 -0.644531 67.273438 -1.285156 Z M 67.273438 -1.285156 "/></g></g></g><g fill="#000000" fill-opacity="1"><g transform="translate(446.426099, 289.743799)"><g><path d="M 46.277344 -15.960938 L 0 -15.960938 L 0 -0.964844 C 0 -0.535156 0.535156 0 1.179688 0 L 46.277344 0 C 47.027344 0 47.453125 -0.535156 47.453125 -0.964844 L 47.453125 -14.890625 C 47.453125 -15.425781 47.027344 -15.960938 46.277344 -15.960938 Z M 16.390625 -32.351562 L 16.390625 -84.734375 C 16.390625 -85.160156 15.960938 -85.699219 15.320312 -85.699219 L 1.179688 -85.699219 C 0.535156 -85.699219 0 -85.160156 0 -84.734375 L 0 -32.351562 Z M 16.390625 -32.351562 "/></g></g></g><g fill="#000000" fill-opacity="1"><g transform="translate(112.537466, 417.204644)"><g><path d="M 28.816406 -85.699219 L 1.070312 -85.699219 C 0.535156 -85.699219 0 -85.160156 0 -84.734375 L 0 -69.949219 L 28.816406 -69.949219 C 30.742188 -69.949219 41.457031 -69.414062 41.457031 -59.988281 C 41.457031 -50.5625 30.957031 -50.347656 28.816406 -50.347656 L 0 -50.347656 L 0 -0.964844 C 0 -0.535156 0.535156 0 1.070312 0 L 14.996094 0 C 15.746094 0 16.066406 -0.535156 16.066406 -0.964844 L 16.066406 -34.492188 L 28.816406 -34.492188 C 30.851562 -34.492188 57.738281 -34.816406 57.738281 -59.988281 C 57.738281 -85.160156 32.242188 -85.699219 28.816406 -85.699219 Z M 28.816406 -85.699219 "/></g></g></g><g fill="#000000" fill-opacity="1"><g transform="translate(184.949825, 417.204644)"><g><path d="M 67.273438 -1.285156 L 34.707031 -85.054688 C 34.386719 -85.910156 32.886719 -85.910156 32.566406 -85.054688 L 0.105469 -1.285156 C -0.214844 -0.644531 0.214844 0 1.179688 0 L 15.855469 0 C 16.28125 0 16.816406 -0.214844 16.925781 -0.644531 L 33.636719 -48.417969 L 50.5625 -0.644531 C 50.667969 -0.214844 51.203125 0 51.527344 0 L 66.308594 0 C 67.058594 0 67.59375 -0.644531 67.273438 -1.285156 Z M 67.273438 -1.285156 "/></g></g></g><g fill="#000000" fill-opacity="1"><g transform="translate(267.431152, 417.204644)"><g><path d="M 15.210938 -85.699219 L 1.179688 -85.699219 C 0.535156 -85.699219 0 -85.160156 0 -84.734375 L 0 -51.097656 L 16.390625 -51.097656 L 16.390625 -70.058594 C 35.027344 -71.023438 48.847656 -63.203125 48.847656 -42.847656 C 48.847656 -16.390625 26.78125 -15.320312 16.390625 -15.746094 L 16.390625 -34.601562 L 0 -34.601562 L 0 -0.964844 C 0 -0.535156 0.535156 0 1.179688 0 L 15.210938 0 C 36.527344 0 65.34375 -6.214844 65.34375 -42.847656 C 65.34375 -80.878906 36.101562 -85.699219 15.210938 -85.699219 Z M 15.210938 -85.699219 "/></g></g></g><g fill="#000000" fill-opacity="1"><g transform="translate(347.877253, 417.204644)"><g><path d="M 58.488281 -1.394531 C 53.132812 -13.28125 47.347656 -25.066406 41.992188 -37.171875 C 50.5625 -40.277344 57.738281 -47.132812 57.738281 -60.203125 C 57.738281 -85.484375 33.636719 -85.699219 28.816406 -85.699219 L 1.070312 -85.699219 C 0.535156 -85.699219 0 -85.160156 0 -84.734375 L 0 -70.164062 L 28.816406 -70.164062 C 31.386719 -70.164062 41.457031 -69.628906 41.457031 -60.203125 C 41.457031 -50.777344 32.351562 -50.347656 28.816406 -50.347656 L 0 -50.347656 L 0 -0.964844 C 0 -0.535156 0.535156 0 1.070312 0 L 15.105469 0 C 15.746094 0 16.28125 -0.535156 16.28125 -0.964844 L 16.28125 -34.601562 L 25.496094 -34.601562 L 41.136719 -0.644531 C 41.242188 -0.320312 41.882812 0 42.207031 0 L 57.523438 0 C 58.382812 0 58.808594 -0.644531 58.488281 -1.394531 Z M 58.488281 -1.394531 "/></g></g></g><g fill="#000000" fill-opacity="1"><g transform="translate(421.253659, 417.204644)"><g><path d="M 40.707031 -15.960938 L 16.390625 -15.960938 L 16.390625 -35.242188 L 50.027344 -35.242188 C 50.667969 -35.242188 51.203125 -35.777344 51.203125 -36.207031 L 51.203125 -49.8125 C 51.203125 -50.347656 50.667969 -50.777344 50.027344 -50.777344 L 16.390625 -50.777344 L 16.390625 -70.164062 L 40.707031 -70.164062 L 40.707031 -85.699219 L 1.179688 -85.699219 C 0.535156 -85.699219 0 -85.160156 0 -84.734375 L 0 -0.964844 C 0 -0.535156 0.535156 0 1.179688 0 L 40.707031 0 Z M 40.707031 -15.960938 "/></g></g></g><g fill="#000000" fill-opacity="1"><g transform="translate(486.81053, 417.204644)"><g/></g></g><g fill="#000000" fill-opacity="1"><g transform="translate(525.373971, 417.204644)"><g><path d="M 7.175781 -71.023438 L 37.386719 -71.023438 L 37.386719 -84.734375 C 37.386719 -85.160156 37.0625 -85.699219 36.3125 -85.699219 L 7.175781 -85.699219 C 6.425781 -85.699219 6 -85.160156 6 -84.734375 L 6 -71.984375 C 6 -71.558594 6.425781 -71.023438 7.175781 -71.023438 Z M 21.101562 -56.347656 L 21.101562 -25.28125 C 21.101562 -25.28125 21.101562 -15.855469 11.785156 -15.855469 L 1.179688 -15.855469 C 0.535156 -15.855469 0 -15.425781 0 -14.890625 L 0 -0.964844 C 0 -0.535156 0.535156 0 1.179688 0 L 11.785156 0 C 11.785156 0 37.386719 0 37.386719 -25.28125 L 37.386719 -56.347656 Z M 21.101562 -56.347656 "/></g></g></g><g fill="#000000" fill-opacity="1"><g transform="translate(576.470084, 417.204644)"><g><path d="M 63.203125 -85.699219 L 49.277344 -85.699219 C 48.527344 -85.699219 48.097656 -85.160156 48.097656 -84.734375 L 48.097656 -28.601562 C 48.097656 -19.925781 40.171875 -15.746094 32.136719 -15.746094 C 24.210938 -15.746094 17.140625 -20.246094 16.175781 -28.707031 L 16.175781 -70.164062 L 0 -70.164062 L 0 -28.601562 C 0 -10.925781 14.460938 0 32.136719 0 C 50.347656 0 64.273438 -10.496094 64.273438 -28.601562 L 64.273438 -84.734375 C 64.273438 -85.160156 63.738281 -85.699219 63.203125 -85.699219 Z M 63.203125 -85.699219 "/></g></g></g><g fill="#000000" fill-opacity="1"><g transform="translate(655.7379, 417.204644)"><g><path d="M 67.273438 -1.285156 L 34.707031 -85.054688 C 34.386719 -85.910156 32.886719 -85.910156 32.566406 -85.054688 L 0.105469 -1.285156 C -0.214844 -0.644531 0.214844 0 1.179688 0 L 15.855469 0 C 16.28125 0 16.816406 -0.214844 16.925781 -0.644531 L 33.636719 -48.417969 L 50.5625 -0.644531 C 50.667969 -0.214844 51.203125 0 51.527344 0 L 66.308594 0 C 67.058594 0 67.59375 -0.644531 67.273438 -1.285156 Z M 67.273438 -1.285156 "/></g></g></g><g fill="#000000" fill-opacity="1"><g transform="translate(738.219231, 417.204644)"><g><path d="M 70.914062 -85.699219 L 57.097656 -85.699219 C 56.347656 -85.699219 55.808594 -85.160156 55.808594 -84.734375 L 55.808594 -28.921875 L 16.28125 -85.375 C 16.175781 -85.589844 15.53125 -85.699219 15.320312 -85.699219 L 1.070312 -85.699219 C 0.535156 -85.699219 0 -85.160156 0 -84.734375 L 0 -20.566406 L 16.390625 -20.566406 L 16.390625 -56.773438 L 55.808594 -0.320312 C 55.917969 -0.105469 56.558594 0 56.773438 0 L 70.914062 0 C 71.664062 0 72.09375 -0.535156 72.09375 -0.964844 L 72.09375 -84.734375 C 72.09375 -85.160156 71.664062 -85.699219 70.914062 -85.699219 Z M 70.914062 -85.699219 "/></g></g></g><g clip-path="url(#cbad17c173)"><path stroke-linecap="butt" transform="matrix(-2.384439, 0, 0, -2.384439, 1217.776559, 158.173511)" fill="none" stroke-linejoin="miter" d="M -0.00032926 5.000551 L 84.433826 5.000551 " stroke="#000000" stroke-width="10" stroke-opacity="1" stroke-miterlimit="4"/></g><path stroke-linecap="butt" transform="matrix(0, -2.384439, 2.384439, 0, 1193.944413, 338.09913)" fill="none" stroke-linejoin="miter" d="M 0.000617923 5.000242 L 82.463987 5.000242 " stroke="#000000" stroke-width="10" stroke-opacity="1" stroke-miterlimit="4"/><path stroke-linecap="butt" transform="matrix(1.757007, 0, 0, 1.757007, 38.36269, 603.7606)" fill="none" stroke-linejoin="miter" d="M 0.000336286 5.000706 L 84.432362 5.000706 " stroke="#000000" stroke-width="10" stroke-opacity="1" stroke-miterlimit="4"/><path stroke-linecap="butt" transform="matrix(0, 1.757007, -1.757007, 0, 55.92375, 471.17996)" fill="none" stroke-linejoin="miter" d="M -0.000154899 4.998913 L 82.464303 4.998913 " stroke="#000000" stroke-width="10" stroke-opacity="1" stroke-miterlimit="4"/><g fill="#000000" fill-opacity="1"><g transform="translate(614.259299, 603.854496)"><g><path d="M 21.710938 -122.324219 L 1.683594 -122.324219 C 0.765625 -122.324219 0 -121.558594 0 -120.945312 L 0 -72.933594 L 23.394531 -72.933594 L 23.394531 -100 C 50 -101.375 69.722656 -90.210938 69.722656 -61.160156 C 69.722656 -23.394531 38.226562 -21.863281 23.394531 -22.476562 L 23.394531 -49.386719 L 0 -49.386719 L 0 -1.375 C 0 -0.765625 0.765625 0 1.683594 0 L 21.710938 0 C 52.140625 0 93.269531 -8.867188 93.269531 -61.160156 C 93.269531 -115.441406 51.527344 -122.324219 21.710938 -122.324219 Z M 21.710938 -122.324219 "/></g></g></g><g fill="#000000" fill-opacity="1"><g transform="translate(712.265435, 603.854496)"><g><path d="M 58.101562 -22.78125 L 23.394531 -22.78125 L 23.394531 -50.304688 L 71.40625 -50.304688 C 72.324219 -50.304688 73.085938 -51.070312 73.085938 -51.679688 L 73.085938 -71.101562 C 73.085938 -71.863281 72.324219 -72.476562 71.40625 -72.476562 L 23.394531 -72.476562 L 23.394531 -100.152344 L 58.101562 -100.152344 L 58.101562 -122.324219 L 1.683594 -122.324219 C 0.765625 -122.324219 0 -121.558594 0 -120.945312 L 0 -1.375 C 0 -0.765625 0.765625 0 1.683594 0 L 58.101562 0 Z M 58.101562 -22.78125 "/></g></g></g><g fill="#000000" fill-opacity="1"><g transform="translate(789.019114, 603.854496)"><g><path d="M 56.117188 -67.890625 C 47.398438 -72.015625 38.835938 -72.015625 38.074219 -72.015625 C 30.273438 -72.015625 22.78125 -76.605469 22.78125 -85.472656 C 22.78125 -95.257812 29.664062 -100.304688 38.074219 -100.304688 C 46.023438 -100.304688 52.75 -96.175781 53.058594 -87.460938 C 53.058594 -87 53.820312 -86.238281 54.738281 -86.238281 L 73.851562 -86.238281 C 74.921875 -86.238281 75.6875 -87 75.535156 -87.460938 C 75.226562 -108.253906 59.019531 -122.324219 38.074219 -122.324219 C 18.5 -122.324219 0 -108.40625 0 -85.472656 C 0 -71.253906 7.1875 -60.398438 19.878906 -54.585938 C 28.746094 -50.457031 37.003906 -50.457031 38.074219 -50.457031 C 44.953125 -50.152344 53.363281 -44.648438 53.363281 -35.625 C 53.363281 -27.523438 46.175781 -22.019531 38.074219 -22.019531 C 38.074219 -22.019531 38.074219 -22.019531 37.921875 -22.019531 L 37.921875 0 C 38.074219 0 38.074219 0 38.074219 0 C 57.644531 0 75.992188 -12.691406 75.992188 -35.625 C 75.992188 -50 68.960938 -61.925781 56.117188 -67.890625 Z M 56.117188 -67.890625 "/></g></g></g><g fill="#000000" fill-opacity="1"><g transform="translate(868.83065, 603.854496)"><g><path d="M 49.847656 -20.949219 L 37.613281 -20.949219 L 37.613281 -122.324219 L 14.21875 -122.324219 L 14.21875 -20.949219 L 1.683594 -20.949219 C 0.765625 -20.949219 0 -20.335938 0 -19.570312 L 0 -1.375 C 0 -0.765625 0.765625 0 1.683594 0 L 49.847656 0 C 50.917969 0 51.527344 -0.765625 51.527344 -1.375 L 51.527344 -19.570312 C 51.527344 -20.335938 50.917969 -20.949219 49.847656 -20.949219 Z M 49.847656 -20.949219 "/></g></g></g><g fill="#000000" fill-opacity="1"><g transform="translate(922.955755, 603.854496)"><g><path d="M 93.269531 -99.84375 L 93.269531 -120.945312 C 93.269531 -121.558594 92.660156 -122.324219 91.589844 -122.324219 L 71.710938 -122.324219 C 41.285156 -122.324219 0 -113.453125 0 -61.160156 C 0 -6.878906 41.742188 0 71.710938 0 L 91.589844 0 C 92.660156 0 93.269531 -0.765625 93.269531 -1.375 L 93.269531 -76.296875 L 46.328125 -76.296875 L 46.328125 -52.90625 L 69.875 -52.90625 L 69.875 -22.324219 C 43.273438 -20.949219 23.546875 -32.109375 23.546875 -61.160156 C 23.546875 -98.929688 55.046875 -100.457031 69.875 -99.84375 Z M 93.269531 -99.84375 "/></g></g></g><g fill="#000000" fill-opacity="1"><g transform="translate(1020.96189, 603.854496)"><g><path d="M 101.222656 -122.324219 L 81.496094 -122.324219 C 80.425781 -122.324219 79.664062 -121.558594 79.664062 -120.945312 L 79.664062 -41.285156 L 23.242188 -121.863281 C 23.089844 -122.167969 22.171875 -122.324219 21.863281 -122.324219 L 1.527344 -122.324219 C 0.765625 -122.324219 0 -121.558594 0 -120.945312 L 0 -29.355469 L 23.394531 -29.355469 L 23.394531 -81.039062 L 79.664062 -0.457031 C 79.816406 -0.152344 80.734375 0 81.039062 0 L 101.222656 0 C 102.292969 0 102.902344 -0.765625 102.902344 -1.375 L 102.902344 -120.945312 C 102.902344 -121.558594 102.292969 -122.324219 101.222656 -122.324219 Z M 101.222656 -122.324219 "/></g></g></g></svg>